<?xml version="1.0" encoding="UTF-8"?>
<svg id="Layer_2" data-name="Layer 2" xmlns="http://www.w3.org/2000/svg" viewBox="0 0 841.96 414.79">
  <defs>
    <style>
      .cls-1 {
        fill: #ffca05;
      }
    </style>
  </defs>
  <g id="Layer_1-2" data-name="Layer 1">
    <g>
      <rect class="cls-1" width="841.96" height="414.79" rx="79.89" ry="79.89"/>
      <g>
        <path d="M309.74,253.82c-4.47,15.33-8.95,30.65-13.41,45.98-3.33,11.43-6.62,22.87-9.94,34.31-2.18,7.53-7.14,11.46-14.91,11.86-8.45,.43-13.99-2.8-16.77-10.41-8.26-22.64-16.36-45.33-24.5-68.01-4.02-11.2-8.05-22.4-12.01-33.63-2.94-8.34-.31-14.86,7.22-17.29,7.57-2.44,17.7-1.02,20.61,7.92,6.61,20.3,13.59,40.49,20.41,60.72,.22,.65,.22,1.49,.65,1.92,1.26,1.25,2.59,3.05,4.06,3.21,.95,.11,2.62-2.09,3.2-3.55,.95-2.39,1.26-5.03,1.85-7.56,5.83-24.76,11.69-49.52,17.43-74.3,.44-1.89,.48-4.08,0-5.94-6.11-23.14-12.36-46.24-18.58-69.36-.14-.53-.16-1.18-.48-1.56-1.16-1.36-2.42-2.63-3.64-3.93-1.29,1.21-3.24,2.19-3.76,3.67-4.19,11.88-8.1,23.85-12.11,35.79-3.14,9.34-6.19,18.72-9.51,28-1.96,5.5-7.52,8.27-14.86,7.88-6.87-.36-12.14-3.9-13.2-9.64-.5-2.67-.19-5.8,.72-8.38,11.87-33.68,24.02-67.27,35.87-100.96,4.04-11.5,13.81-13.62,22.69-10.94,5.49,1.65,8.2,5.98,9.74,11.3,7.35,25.49,14.79,50.95,22.2,76.42,.36,1.24,.81,2.46,1.57,4.76,3.69-12.71,7.06-24.33,10.43-35.96,4.42-15.24,8.79-30.48,13.27-45.7,2.29-7.78,7.26-11.54,15.32-11.89,7.81-.34,13.57,3.46,16.32,11.12,12.28,34.12,24.52,68.25,36.69,102.41,3.11,8.73-.64,15.02-9.85,17.07-8.86,1.97-15.4-1.73-18.24-10.28-6.61-19.87-13.23-39.74-19.84-59.61-.17-.52-.25-1.17-.61-1.51-1.27-1.21-2.54-2.99-4.01-3.2-.93-.13-2.82,1.97-3.22,3.37-4.19,14.73-8.18,29.52-12.18,44.3-2.36,8.71-4.78,17.41-6.9,26.18-.59,2.42-.73,5.2-.18,7.61,6.11,26.52,12.34,53.01,18.75,79.47,.47,1.92,2.51,3.46,3.82,5.18,1.43-1.59,3.55-2.94,4.19-4.8,6.87-19.92,13.51-39.92,20.2-59.91,3.36-10.04,15.4-13.91,24.1-7.74,4.65,3.3,6.09,8.51,3.91,14.63-5.66,15.86-11.35,31.71-17.04,47.55-6.48,18.03-12.93,36.07-19.45,54.09-2.98,8.23-8.33,11.81-16.89,11.49-8-.3-12.6-4.07-15.1-12.57-7.78-26.5-15.52-53.01-23.28-79.52-.24-.03-.49-.06-.73-.09Z"/>
        <path d="M694.29,294.07c0,12.44,.1,24.64-.03,36.83-.12,10.91-10.11,17.83-19.86,13.73-6.03-2.53-9.09-7.5-9.11-13.92-.1-33.33-.12-66.65-.01-99.98,.03-8.89,6.54-15.09,15.11-15.02,7.78,.07,13.86,6.69,13.9,15.3,.06,11.77,.01,23.54,.01,35.63h51.58c0-1.62,0-3.09,0-4.56,0-10.42-.05-20.85,.01-31.27,.05-8.95,6.39-15.88,14.39-15.89,8.04-.01,14.62,6.78,14.65,15.68,.1,33.46,.1,66.93-.02,100.39-.03,8.31-6.79,14.98-14.52,14.97-8.01-.02-14.45-6.76-14.49-15.36-.06-12.06-.02-24.12-.02-36.55h-51.59Z"/>
        <path d="M134.31,95.08c-18.17,0-35.74,0-53.3,0-7.73,0-13.42-4.92-14.01-12.09-.55-6.68,4.49-12.74,11.76-13.99,1.88-.32,3.81-.43,5.72-.43,24.16-.03,48.33-.06,72.49,.02,2.98,.01,6.12,.21,8.9,1.16,7.84,2.69,11.16,11.56,7.11,19.77-2.03,4.11-5.09,7.78-8.04,11.35-19.64,23.79-39.38,47.5-59.59,71.84,1.84,.09,3.09,.21,4.34,.21,16.89,.01,33.77,0,50.66,.02,8.63,.01,14.72,5.52,14.7,13.24-.01,7.68-6.12,13.22-14.75,13.28-8.24,.06-16.47,0-24.71,0-17.85,0-35.7,.04-53.54-.03-7.69-.03-13.47-4.36-14.8-11.13-.99-5.06,.89-9.47,3.95-13.35,10.19-12.92,20.45-25.79,30.7-38.66,10.42-13.09,20.86-26.16,31.28-39.25,.32-.41,.53-.91,1.12-1.96Z"/>
        <path d="M168.09,215.49c14.17,.09,27.39,3.56,39.39,11.18,7.21,4.58,9.33,12.13,5.4,18.71-3.96,6.63-12.77,8.71-19.85,4.39-8.86-5.4-18.17-9.03-28.74-8.15-2.55,.21-5.18,.81-7.52,1.81-3.54,1.51-6.11,4.02-6.37,8.3-.28,4.63,1.94,7.86,5.96,9.33,6.79,2.49,13.8,4.36,20.69,6.58,7.15,2.31,14.46,4.26,21.35,7.18,13.9,5.9,21.15,16.79,20.95,31.87-.21,15.39-7.09,27.18-21.35,33.77-17.39,8.05-35.26,7.08-52.86,1.01-7.29-2.51-14.2-6.44-20.84-10.46-7.47-4.52-9.08-12.59-4.62-19.12,4.49-6.57,13.57-8.18,20.33-3.2,8.35,6.14,17.37,10.69,27.81,11.07,5.2,.19,10.58-.72,15.66-2.01,4.3-1.09,6.77-4.66,6.94-9.22,.18-4.53-2.35-7.64-6.41-9.09-6.3-2.24-12.76-4.02-19.13-6.04-7.55-2.4-15.26-4.42-22.58-7.4-13.16-5.35-20.39-15.37-20.91-29.71-.55-15.01,5.65-26.49,18.68-34.15,8.65-5.09,18.17-6.64,28.02-6.67Z"/>
        <path d="M609.61,215.68c14.08-.25,28.36,3.64,41.05,12.85,6.86,4.98,8.89,13.54,4.59,19.79-4.73,6.88-13.91,8.49-21.02,3.21-11.4-8.48-23.92-11.66-37.61-7.78-20.57,5.83-31.33,28.13-24.7,49.43,4.74,15.23,19.59,27.22,38.47,25.82,9.61-.71,17.71-4.1,25.13-9.93,5.77-4.53,12.69-4.51,17.83-.34,6.64,5.39,6.74,15.02,.06,20.81-9.77,8.48-21.09,13.67-33.94,15.47-16.46,2.3-32.38,.65-46.99-7.7-18.9-10.8-29.57-27.26-31.92-48.92-2.32-21.37,3.9-39.92,19.53-54.79,13.36-12.7,29.71-18.15,49.51-17.92Z"/>
        <path d="M479.71,242.42c-9.14,0-17.64,.09-26.13-.03-6.31-.09-11.85-4.27-13.33-9.77-1.52-5.66,.6-11.82,5.64-14.68,2.27-1.29,5.14-2.11,7.74-2.12,27.18-.15,54.37-.12,81.56-.09,7.88,0,13.95,5.92,13.82,13.26-.12,7.42-6.13,13.31-13.86,13.41-7.28,.1-14.55,.02-21.83,.02-1.34,0-2.67,0-4.44,0,0,1.59,0,2.78,0,3.97,0,27.85,0,55.7,0,83.55,0,9.01-6.01,15.82-14.19,16.04-8.14,.21-14.93-6.88-14.95-15.82-.05-27.58-.03-55.15-.04-82.73,0-1.48,0-2.97,0-5.01Z"/>
        <path d="M209.84,134.02c0,16.86,.04,33.72-.01,50.58-.03,11.48-10.18,18.11-20.81,13.64-5.57-2.34-8.2-6.83-8.21-12.63-.08-34.41-.09-68.81,.02-103.22,.02-8.16,6.54-13.97,14.84-13.79,8.21,.18,14.08,5.84,14.13,14.01,.1,17.13,.03,34.27,.03,51.4h.02Z"/>
        <path d="M436.56,281.1c0,16.31-.03,32.62,0,48.93,.01,6.82-2.69,12-9.07,14.75-8.99,3.88-19.41-2.87-19.58-12.79-.2-11.92-.07-23.85-.08-35.77,0-21.79,.02-43.59-.02-65.38-.01-6.2,2.54-10.92,8.06-13.7,4.9-2.47,9.86-2.13,14.38,1.11,4.6,3.29,6.37,7.91,6.34,13.51-.1,16.45-.03,32.89-.04,49.34Z"/>
      </g>
    </g>
  </g>
</svg>